<?xml version="1.0" encoding="utf-8"?>
<!-- Generator: Adobe Illustrator 23.0.1, SVG Export Plug-In . SVG Version: 6.00 Build 0)  -->
<svg version="1.1" id="Layer_1" xmlns="http://www.w3.org/2000/svg" xmlns:xlink="http://www.w3.org/1999/xlink" x="0px" y="0px"
	 viewBox="0 0 96.7 147.5" style="enable-background:new 0 0 96.7 147.5;" xml:space="preserve">
<style type="text/css">
	.st0{fill:#004787;stroke:#FFFFFF;stroke-width:4;stroke-miterlimit:10;}
	.st1{fill:#9094A6;}
	.st2{fill:#9397A9;}
	.st3{fill:#979BAC;}
	.st4{fill:#9A9EAF;}
	.st5{fill:#9EA1B2;}
	.st6{fill:#A1A5B6;}
	.st7{fill:#A5A8B9;}
	.st8{fill:#A8ACBC;}
	.st9{fill:#ACAFBF;}
	.st10{fill:#AFB3C2;}
	.st11{fill:#B3B6C5;}
	.st12{fill:#B6BAC9;}
	.st13{fill:#BABECC;}
	.st14{fill:#BEC1CF;}
	.st15{fill:#C1C5D2;}
	.st16{fill:#C5C9D5;}
	.st17{fill:#C9CDD8;}
	.st18{fill:#CDD0DB;}
	.st19{fill:#D1D4DE;}
	.st20{fill:#D4D8E1;}
	.st21{fill:#D8DCE4;}
	.st22{fill:#DCDFE7;}
	.st23{fill:#E0E3EA;}
	.st24{fill:#E4E7ED;}
	.st25{fill:#E8EAEF;}
	.st26{fill:#ECEEF2;}
	.st27{fill:#EFF1F5;}
	.st28{fill:#F3F5F7;}
	.st29{fill:#F7F8FA;}
	.st30{fill:#FAFBFC;}
	.st31{fill:#FDFEFE;}
	.st32{fill:#FFFFFF;}
</style>
<path class="st0" d="M88.4,90.2C86.4,73.6,48.2,7,44.7,1C41.3,7,3,73.6,1,90.2c-2.4,19.4,4.2,29.8,10.7,37c8.3,9.3,21,14.3,33,14.5
	c12-0.1,24.7-5.2,33-14.5C84.2,120,90.8,109.7,88.4,90.2z"/>
<g>
	<polygon class="st1" points="96.7,86.2 88.1,61 32.9,61 24.3,86.2 46.7,86.2 46.7,147.5 74.3,147.5 74.3,86.2 	"/>
	<polygon class="st2" points="32.9,61 24.4,86.1 46.8,86.1 46.8,147.4 74.2,147.4 74.2,86.1 96.6,86.1 88.1,61 	"/>
	<polygon class="st3" points="33,61.1 24.6,86 46.9,86 46.9,147.4 74.1,147.4 74.1,86 96.4,86 88,61.1 	"/>
	<polygon class="st4" points="33,61.2 24.7,86 47,86 47,147.3 74,147.3 74,86 96.3,86 88,61.2 	"/>
	<polygon class="st5" points="33.1,61.2 24.8,85.9 47.1,85.9 47.1,147.2 73.9,147.2 73.9,85.9 96.2,85.9 87.9,61.2 	"/>
	<polygon class="st6" points="33.1,61.3 24.9,85.8 47.2,85.8 47.2,147.1 73.8,147.1 73.8,85.8 96.1,85.8 87.9,61.3 	"/>
	<polygon class="st7" points="33.2,61.4 25.1,85.8 47.3,85.8 47.3,147 73.7,147 73.7,85.8 95.9,85.8 87.8,61.4 	"/>
	<polygon class="st8" points="33.2,61.4 25.2,85.7 47.4,85.7 47.4,147 73.6,147 73.6,85.7 95.8,85.7 87.8,61.4 	"/>
	<polygon class="st9" points="33.3,61.5 25.3,85.6 47.4,85.6 47.4,146.9 73.5,146.9 73.5,85.6 95.7,85.6 87.7,61.5 	"/>
	<polygon class="st10" points="33.3,61.6 25.5,85.5 47.5,85.5 47.5,146.8 73.4,146.8 73.4,85.5 95.5,85.5 87.6,61.6 	"/>
	<polygon class="st11" points="33.4,61.6 25.6,85.5 47.6,85.5 47.6,146.7 73.3,146.7 73.3,85.5 95.4,85.5 87.6,61.6 	"/>
	<polygon class="st12" points="33.4,61.7 25.7,85.4 47.7,85.4 47.7,146.6 73.2,146.6 73.2,85.4 95.3,85.4 87.5,61.7 	"/>
	<polygon class="st13" points="33.5,61.8 25.8,85.3 47.8,85.3 47.8,146.5 73.2,146.5 73.2,85.3 95.2,85.3 87.5,61.8 	"/>
	<polygon class="st14" points="33.6,61.8 26,85.3 47.9,85.3 47.9,146.5 73.1,146.5 73.1,85.3 95,85.3 87.4,61.8 	"/>
	<polygon class="st15" points="33.6,61.9 26.1,85.2 48,85.2 48,146.4 73,146.4 73,85.2 94.9,85.2 87.4,61.9 	"/>
	<polygon class="st16" points="33.7,62 26.2,85.1 48.1,85.1 48.1,146.3 72.9,146.3 72.9,85.1 94.8,85.1 87.3,62 	"/>
	<polygon class="st17" points="33.7,62 26.4,85.1 48.2,85.1 48.2,146.2 72.8,146.2 72.8,85.1 94.6,85.1 87.3,62 	"/>
	<polygon class="st18" points="33.8,62.1 26.5,85 48.3,85 48.3,146.1 72.7,146.1 72.7,85 94.5,85 87.2,62.1 	"/>
	<polygon class="st19" points="33.8,62.2 26.6,84.9 48.4,84.9 48.4,146.1 72.6,146.1 72.6,84.9 94.4,84.9 87.2,62.2 	"/>
	<polygon class="st20" points="33.9,62.2 26.7,84.9 48.5,84.9 48.5,146 72.5,146 72.5,84.9 94.3,84.9 87.1,62.2 	"/>
	<polygon class="st21" points="33.9,62.3 26.9,84.8 48.6,84.8 48.6,145.9 72.4,145.9 72.4,84.8 94.1,84.8 87.1,62.3 	"/>
	<polygon class="st22" points="34,62.4 27,84.7 48.7,84.7 48.7,145.8 72.3,145.8 72.3,84.7 94,84.7 87,62.4 	"/>
	<polygon class="st23" points="34,62.4 27.1,84.7 48.8,84.7 48.8,145.7 72.2,145.7 72.2,84.7 93.9,84.7 87,62.4 	"/>
	<polygon class="st24" points="34.1,62.5 27.3,84.6 48.9,84.6 48.9,145.6 72.1,145.6 72.1,84.6 93.7,84.6 86.9,62.5 	"/>
	<polygon class="st25" points="34.1,62.6 27.4,84.5 49,84.5 49,145.6 72,145.6 72,84.5 93.6,84.5 86.9,62.6 	"/>
	<polygon class="st26" points="34.2,62.6 27.5,84.5 49.1,84.5 49.1,145.5 71.9,145.5 71.9,84.5 93.5,84.5 86.8,62.6 	"/>
	<polygon class="st27" points="34.2,62.7 27.6,84.4 49.2,84.4 49.2,145.4 71.8,145.4 71.8,84.4 93.4,84.4 86.8,62.7 	"/>
	<polygon class="st28" points="34.3,62.8 27.8,84.3 49.3,84.3 49.3,145.3 71.7,145.3 71.7,84.3 93.2,84.3 86.7,62.8 	"/>
	<polygon class="st29" points="34.3,62.8 27.9,84.3 49.4,84.3 49.4,145.2 71.6,145.2 71.6,84.3 93.1,84.3 86.7,62.8 	"/>
	<polygon class="st30" points="34.4,62.9 28,84.2 49.5,84.2 49.5,145.1 71.5,145.1 71.5,84.2 93,84.2 86.6,62.9 	"/>
	<polygon class="st31" points="34.4,63 28.2,84.1 49.6,84.1 49.6,145.1 71.4,145.1 71.4,84.1 92.8,84.1 86.6,63 	"/>
	<polygon class="st32" points="34.5,63 28.3,84.1 49.7,84.1 49.7,145 71.3,145 71.3,84.1 92.7,84.1 86.5,63 	"/>
</g>
</svg>
