<?xml version="1.0" encoding="utf-8"?>
<!-- Generator: Adobe Illustrator 23.0.1, SVG Export Plug-In . SVG Version: 6.00 Build 0)  -->
<svg version="1.1" id="Layer_1" xmlns="http://www.w3.org/2000/svg" xmlns:xlink="http://www.w3.org/1999/xlink" x="0px" y="0px"
	 viewBox="0 0 96.9 105.1" style="enable-background:new 0 0 96.9 105.1;" xml:space="preserve">
<style type="text/css">
	.st0{fill:#2F4D8A;}
	.st1{fill:#858DA0;}
	.st2{fill:#8890A3;}
	.st3{fill:#8B93A5;}
	.st4{fill:#8E95A8;}
	.st5{fill:#9198AB;}
	.st6{fill:#959CAE;}
	.st7{fill:#989FB0;}
	.st8{fill:#9BA2B3;}
	.st9{fill:#9FA5B6;}
	.st10{fill:#A2A8B9;}
	.st11{fill:#A5ABBC;}
	.st12{fill:#A9AFBF;}
	.st13{fill:#ACB2C1;}
	.st14{fill:#B0B5C4;}
	.st15{fill:#B3B8C7;}
	.st16{fill:#B7BCCA;}
	.st17{fill:#BBBFCD;}
	.st18{fill:#BEC3D0;}
	.st19{fill:#C2C6D3;}
	.st20{fill:#C6CAD5;}
	.st21{fill:#CACDD8;}
	.st22{fill:#CED1DB;}
	.st23{fill:#D2D5DE;}
	.st24{fill:#D6D8E1;}
	.st25{fill:#DADCE4;}
	.st26{fill:#DEE0E8;}
	.st27{fill:#E2E4EB;}
	.st28{fill:#E7E8EE;}
	.st29{fill:#EBEDF1;}
	.st30{fill:#F1F1F5;}
	.st31{fill:#F7F7F9;}
	.st32{fill:#FFFFFF;}
</style>
<path class="st0" d="M71.8,47.6C70.7,38.7,50.4,3.2,48.5,0c-1.8,3.2-22.2,38.7-23.3,47.6c-1.3,10.4,2.2,15.9,5.7,19.8
	c4.4,4.9,11.2,7.6,17.6,7.7c6.4-0.1,13.2-2.8,17.6-7.7C69.6,63.5,73.1,58,71.8,47.6z"/>
<g>
	<g>
		<g>
			<g>
				<g>
					<path class="st0" d="M5.9,84.3H3.6v9.4H2.3v-9.4H0v-1.2h5.9V84.3z"/>
					<path class="st0" d="M10.8,85.6c1.1,0,2.1,0.4,2.9,1.2c0.8,0.8,1.2,1.8,1.2,3s-0.4,2.1-1.2,3C13,93.6,12,94,10.8,94
						s-2.1-0.4-2.9-1.2c-0.8-0.8-1.2-1.8-1.2-3s0.4-2.1,1.2-3S9.7,85.6,10.8,85.6z M10.8,92.8c0.8,0,1.5-0.3,2.1-0.9
						c0.6-0.6,0.9-1.3,0.9-2.1s-0.3-1.5-0.9-2.2c-0.6-0.6-1.3-0.9-2.1-0.9c-0.8,0-1.5,0.3-2,0.9c-0.6,0.6-0.9,1.3-0.9,2.2
						c0,0.8,0.3,1.5,0.8,2.1C9.3,92.5,10,92.8,10.8,92.8z"/>
					<path class="st0" d="M20.3,86.8h-1.6v5.6c0,0.2,0,0.3,0.1,0.4c0.1,0,0.2,0.1,0.4,0.1h0.7v1c-0.5,0.1-0.8,0.1-1.1,0.1
						c-0.5,0-0.8-0.1-1-0.3c-0.2-0.2-0.3-0.6-0.3-1.1v-5.7h-1.4v-1h1.4v-3h1.2v3h1.6V86.8z"/>
					<path class="st0" d="M29.4,93.7h-1.2v-1.2c-0.9,1-1.9,1.4-3,1.4c-1.1,0-2.1-0.4-2.9-1.2c-0.8-0.8-1.2-1.8-1.2-3
						c0-1.1,0.4-2.1,1.2-3c0.8-0.8,1.8-1.2,2.9-1.2c1.2,0,2.1,0.5,2.9,1.4v-1.2h1.2V93.7z M25.4,92.9c0.8,0,1.5-0.3,2.1-0.9
						c0.6-0.6,0.9-1.3,0.9-2.2c0-0.9-0.3-1.6-0.9-2.2c-0.6-0.6-1.3-0.9-2.1-0.9c-0.8,0-1.5,0.3-2.1,0.9c-0.6,0.6-0.9,1.3-0.9,2.1
						s0.3,1.5,0.9,2.1C23.9,92.6,24.5,92.9,25.4,92.9z"/>
					<path class="st0" d="M32.5,93.7h-1.2V82.8h1.2V93.7z"/>
					<path class="st0" d="M46.2,93.2c-0.8,0.5-1.8,0.8-2.8,0.8c-1.6,0-3-0.5-4.1-1.6c-1.1-1.1-1.6-2.4-1.6-3.9c0-1.6,0.5-2.9,1.6-4
						c1.1-1.1,2.4-1.6,4-1.6c1,0,2,0.2,2.8,0.7c0.9,0.5,1.5,1.2,2,2c0.5,0.9,0.7,1.8,0.7,2.8c0,1.6-0.6,3-1.7,4.1l1.6,2.1h-1.6
						L46.2,93.2z M46.4,91.5c0.8-0.8,1.3-1.9,1.3-3.1c0-1.2-0.4-2.3-1.3-3.1c-0.9-0.8-1.9-1.3-3.1-1.3c-1.2,0-2.2,0.4-3,1.3
						c-0.8,0.9-1.3,1.9-1.3,3.1c0,1.2,0.4,2.3,1.3,3.1c0.8,0.8,1.9,1.2,3,1.2c0.8,0,1.5-0.2,2.1-0.5l-2.4-3h1.5L46.4,91.5z"/>
					<path class="st0" d="M57.5,93.7h-1.2v-1.2c-0.8,0.9-1.7,1.4-2.8,1.4c-0.6,0-1.1-0.1-1.6-0.4c-0.5-0.3-0.8-0.7-1-1.2
						c-0.2-0.5-0.3-1.3-0.3-2.4v-4.1h1.2v3.8c0,0.9,0,1.5,0.1,1.8c0.1,0.3,0.2,0.6,0.4,0.8c0.2,0.2,0.4,0.4,0.6,0.5
						c0.2,0.1,0.5,0.2,0.9,0.2c0.4,0,0.7-0.1,1-0.3c0.3-0.2,0.6-0.4,0.9-0.7c0.2-0.3,0.4-0.6,0.5-1c0.1-0.3,0.1-1,0.1-2.1v-2.9h1.2
						V93.7z"/>
					<path class="st0" d="M60.3,82.8l1.8,0l-2.2,2h-1.3L60.3,82.8z M60.7,93.7h-1.2v-7.9h1.2V93.7z"/>
					<path class="st0" d="M74.2,93.7H73v-4.3c0-0.7,0-1.2-0.1-1.5c-0.1-0.3-0.3-0.6-0.5-0.8c-0.3-0.2-0.6-0.3-1.1-0.3
						s-0.9,0.1-1.3,0.4c-0.4,0.3-0.7,0.7-0.8,1.2c-0.2,0.5-0.2,1.2-0.2,2.2v3.1h-1.2v-4.1c0-0.8,0-1.4-0.1-1.7
						c-0.1-0.3-0.3-0.6-0.5-0.9c-0.3-0.2-0.6-0.3-1.1-0.3c-0.4,0-0.8,0.1-1.2,0.4c-0.4,0.3-0.7,0.6-0.9,1c-0.2,0.4-0.3,1.1-0.3,2.1
						v3.4h-1.2v-7.9h1.2v1.1c0.7-0.9,1.5-1.3,2.5-1.3c0.6,0,1.1,0.1,1.5,0.4c0.5,0.3,0.8,0.7,1,1.3c0.3-0.6,0.7-1,1.2-1.3
						c0.5-0.3,1-0.4,1.6-0.4c0.8,0,1.4,0.3,1.9,0.8s0.8,1.5,0.8,3V93.7z"/>
					<path class="st0" d="M76.6,82.8c0.3,0,0.5,0.1,0.7,0.3c0.2,0.2,0.3,0.4,0.3,0.7c0,0.3-0.1,0.5-0.3,0.7
						c-0.2,0.2-0.4,0.3-0.7,0.3c-0.3,0-0.5-0.1-0.7-0.3c-0.2-0.2-0.3-0.4-0.3-0.6c0-0.2,0.1-0.5,0.3-0.6S76.3,82.8,76.6,82.8z
						 M77.2,93.7H76v-7.9h1.2V93.7z"/>
					<path class="st0" d="M86.8,92.1c-0.4,0.6-1,1.1-1.6,1.4S83.7,94,82.9,94c-1.2,0-2.2-0.4-3.1-1.2c-0.8-0.8-1.2-1.8-1.2-3
						s0.4-2.2,1.2-3c0.8-0.8,1.9-1.2,3.2-1.2c0.8,0,1.5,0.2,2.1,0.5c0.7,0.3,1.2,0.8,1.5,1.4l-0.9,0.6c-0.7-0.9-1.6-1.4-2.8-1.4
						c-0.9,0-1.7,0.3-2.3,0.9c-0.6,0.6-0.9,1.3-0.9,2.1c0,0.9,0.3,1.6,0.9,2.2c0.6,0.6,1.4,0.9,2.3,0.9c1.1,0,2-0.5,2.8-1.4
						L86.8,92.1z"/>
					<path class="st0" d="M96.3,93.7h-1.2v-1.2c-0.9,1-1.9,1.4-3,1.4s-2.1-0.4-2.9-1.2c-0.8-0.8-1.2-1.8-1.2-3c0-1.1,0.4-2.1,1.2-3
						c0.8-0.8,1.8-1.2,2.9-1.2c1.2,0,2.1,0.5,2.9,1.4v-1.2h1.2V93.7z M92.3,92.9c0.8,0,1.5-0.3,2.1-0.9c0.6-0.6,0.9-1.3,0.9-2.2
						c0-0.9-0.3-1.6-0.9-2.2c-0.6-0.6-1.3-0.9-2.1-0.9c-0.8,0-1.5,0.3-2.1,0.9c-0.6,0.6-0.9,1.3-0.9,2.1s0.3,1.5,0.9,2.1
						C90.7,92.6,91.4,92.9,92.3,92.9z"/>
				</g>
			</g>
		</g>
	</g>
	<g>
		<g>
			<path class="st0" d="M3.7,98.7c0.5,0,0.9,0.1,1.3,0.3c0.4,0.2,0.7,0.5,1,0.9c0.2,0.4,0.3,0.8,0.3,1.3c0,0.5-0.1,0.9-0.3,1.3
				c-0.2,0.4-0.5,0.7-0.9,0.9c-0.4,0.2-0.8,0.3-1.3,0.3s-0.9-0.1-1.3-0.3c-0.4-0.2-0.7-0.5-1-0.9c-0.2-0.4-0.3-0.8-0.3-1.3
				c0-0.5,0.1-0.9,0.3-1.3C1.7,99.6,2,99.3,2.4,99S3.2,98.7,3.7,98.7z M3.7,103.3c0.6,0,1-0.2,1.4-0.6c0.4-0.4,0.6-0.9,0.6-1.4
				c0-0.6-0.2-1.1-0.6-1.5c-0.4-0.4-0.9-0.6-1.4-0.6c-0.6,0-1,0.2-1.4,0.6c-0.4,0.4-0.6,0.9-0.6,1.4c0,0.6,0.2,1,0.6,1.4
				C2.7,103.1,3.1,103.3,3.7,103.3z"/>
			<path class="st0" d="M10.3,103.7H9.8V102c0-0.4,0-0.7-0.1-0.8c0-0.1-0.1-0.3-0.2-0.4c-0.1-0.1-0.2-0.2-0.3-0.2
				c-0.1,0-0.3-0.1-0.4-0.1c-0.2,0-0.3,0-0.5,0.1c-0.2,0.1-0.3,0.2-0.4,0.3c-0.1,0.1-0.2,0.3-0.2,0.5s-0.1,0.5-0.1,1v1.4H7.1v-3.7
				h0.6v0.6C8,100.2,8.5,100,9,100c0.3,0,0.5,0.1,0.7,0.2c0.2,0.1,0.4,0.3,0.5,0.6c0.1,0.2,0.2,0.6,0.2,1.1V103.7z"/>
			<path class="st0" d="M14.9,103.7h-0.5v-0.5c-0.4,0.4-0.9,0.7-1.4,0.7c-0.5,0-1-0.2-1.3-0.6c-0.4-0.4-0.6-0.8-0.6-1.4
				c0-0.5,0.2-1,0.6-1.4c0.4-0.4,0.8-0.6,1.4-0.6c0.5,0,1,0.2,1.4,0.7v-1.9h0.5V103.7z M13,103.4c0.4,0,0.7-0.1,1-0.4
				c0.3-0.3,0.4-0.6,0.4-1c0-0.4-0.1-0.7-0.4-1c-0.3-0.3-0.6-0.4-1-0.4c-0.4,0-0.7,0.1-1,0.4c-0.3,0.3-0.4,0.6-0.4,1
				c0,0.4,0.1,0.7,0.4,1C12.3,103.2,12.6,103.4,13,103.4z"/>
			<path class="st0" d="M19.5,102h-3.2c0,0.4,0.2,0.7,0.4,1c0.2,0.2,0.5,0.4,0.9,0.4c0.6,0,1-0.3,1.4-0.9l0.5,0.2
				c-0.2,0.4-0.5,0.7-0.7,0.9c-0.3,0.2-0.6,0.3-1,0.3c-0.6,0-1-0.2-1.4-0.6c-0.4-0.4-0.5-0.8-0.5-1.4c0-0.5,0.2-1,0.5-1.4
				c0.4-0.4,0.8-0.6,1.3-0.6c0.5,0,1,0.2,1.3,0.5C19.3,100.9,19.5,101.4,19.5,102z M18.8,101.5c-0.1-0.3-0.2-0.6-0.5-0.7
				c-0.2-0.2-0.5-0.3-0.8-0.3c-0.6,0-1,0.3-1.3,1H18.8z"/>
			<path class="st0" d="M23.6,100.6h-0.7v2.6c0,0.1,0,0.2,0,0.2s0.1,0,0.2,0h0.3v0.5c-0.2,0-0.4,0.1-0.5,0.1c-0.2,0-0.4-0.1-0.5-0.2
				c-0.1-0.1-0.2-0.3-0.2-0.5v-2.7h-0.6v-0.5h0.6v-1.4h0.6v1.4h0.7V100.6z"/>
			<path class="st0" d="M27.8,102h-3.2c0,0.4,0.2,0.7,0.4,1c0.2,0.2,0.5,0.4,0.9,0.4c0.6,0,1-0.3,1.4-0.9l0.5,0.2
				c-0.2,0.4-0.5,0.7-0.7,0.9c-0.3,0.2-0.6,0.3-1,0.3c-0.6,0-1-0.2-1.4-0.6c-0.4-0.4-0.5-0.8-0.5-1.4c0-0.5,0.2-1,0.5-1.4
				c0.4-0.4,0.8-0.6,1.3-0.6c0.5,0,1,0.2,1.3,0.5C27.6,100.9,27.8,101.4,27.8,102z M27.2,101.5c-0.1-0.3-0.2-0.6-0.5-0.7
				c-0.2-0.2-0.5-0.3-0.8-0.3c-0.6,0-1,0.3-1.3,1H27.2z"/>
			<path class="st0" d="M34,103.7h-0.6v-2c0-0.3,0-0.6-0.1-0.7c0-0.1-0.1-0.3-0.2-0.4c-0.1-0.1-0.3-0.2-0.5-0.2
				c-0.2,0-0.4,0.1-0.6,0.2s-0.3,0.3-0.4,0.6c-0.1,0.2-0.1,0.6-0.1,1v1.5H31v-1.9c0-0.4,0-0.6-0.1-0.8c0-0.2-0.1-0.3-0.3-0.4
				c-0.1-0.1-0.3-0.2-0.5-0.2c-0.2,0-0.4,0.1-0.6,0.2c-0.2,0.1-0.3,0.3-0.4,0.5c-0.1,0.2-0.1,0.5-0.1,1v1.6h-0.6v-3.7h0.6v0.5
				c0.3-0.4,0.7-0.6,1.2-0.6c0.3,0,0.5,0.1,0.7,0.2c0.2,0.1,0.4,0.3,0.4,0.6c0.2-0.3,0.3-0.5,0.6-0.6c0.2-0.1,0.5-0.2,0.7-0.2
				c0.4,0,0.7,0.1,0.9,0.4c0.2,0.2,0.4,0.7,0.4,1.4V103.7z"/>
			<path class="st0" d="M40.3,105.1h-0.5v-1.8c-0.4,0.4-0.9,0.7-1.4,0.7c-0.5,0-1-0.2-1.3-0.6c-0.4-0.4-0.6-0.8-0.6-1.4
				c0-0.5,0.2-1,0.6-1.4c0.4-0.4,0.8-0.6,1.4-0.6c0.5,0,1,0.2,1.4,0.7v-0.6h0.5V105.1z M38.4,103.4c0.4,0,0.7-0.1,1-0.4
				c0.3-0.3,0.4-0.6,0.4-1c0-0.4-0.1-0.7-0.4-1c-0.3-0.3-0.6-0.4-1-0.4c-0.4,0-0.7,0.1-1,0.4c-0.3,0.3-0.4,0.6-0.4,1
				c0,0.4,0.1,0.7,0.4,1C37.7,103.2,38,103.4,38.4,103.4z"/>
			<path class="st0" d="M44.4,103.7h-0.6v-0.6c-0.4,0.4-0.8,0.6-1.3,0.6c-0.3,0-0.5-0.1-0.7-0.2c-0.2-0.1-0.4-0.3-0.5-0.6
				c-0.1-0.2-0.2-0.6-0.2-1.1v-1.9h0.6v1.8c0,0.4,0,0.7,0.1,0.8c0,0.1,0.1,0.3,0.2,0.4c0.1,0.1,0.2,0.2,0.3,0.2s0.3,0.1,0.4,0.1
				c0.2,0,0.3,0,0.5-0.1c0.2-0.1,0.3-0.2,0.4-0.3c0.1-0.1,0.2-0.3,0.2-0.5c0-0.2,0.1-0.5,0.1-1v-1.4h0.6V103.7z"/>
			<path class="st0" d="M45.7,98.7l0.8,0l-1,0.9h-0.6L45.7,98.7z M45.8,103.7h-0.6v-3.7h0.6V103.7z"/>
			<path class="st0" d="M52.1,103.7h-0.6v-2c0-0.3,0-0.6-0.1-0.7c0-0.1-0.1-0.3-0.2-0.4s-0.3-0.2-0.5-0.2c-0.2,0-0.4,0.1-0.6,0.2
				c-0.2,0.1-0.3,0.3-0.4,0.6c-0.1,0.2-0.1,0.6-0.1,1v1.5h-0.5v-1.9c0-0.4,0-0.6-0.1-0.8s-0.1-0.3-0.3-0.4c-0.1-0.1-0.3-0.2-0.5-0.2
				s-0.4,0.1-0.6,0.2c-0.2,0.1-0.3,0.3-0.4,0.5c-0.1,0.2-0.1,0.5-0.1,1v1.6h-0.6v-3.7h0.6v0.5c0.3-0.4,0.7-0.6,1.2-0.6
				c0.3,0,0.5,0.1,0.7,0.2c0.2,0.1,0.4,0.3,0.4,0.6c0.2-0.3,0.3-0.5,0.6-0.6c0.2-0.1,0.5-0.2,0.7-0.2c0.4,0,0.7,0.1,0.9,0.4
				c0.2,0.2,0.4,0.7,0.4,1.4V103.7z"/>
			<path class="st0" d="M53.2,98.7c0.1,0,0.2,0,0.3,0.1c0.1,0.1,0.1,0.2,0.1,0.3c0,0.1,0,0.2-0.1,0.3c-0.1,0.1-0.2,0.1-0.3,0.1
				c-0.1,0-0.2,0-0.3-0.1c-0.1-0.1-0.1-0.2-0.1-0.3c0-0.1,0-0.2,0.1-0.3C53,98.7,53.1,98.7,53.2,98.7z M53.5,103.7h-0.6v-3.7h0.6
				V103.7z"/>
			<path class="st0" d="M57.9,103c-0.2,0.3-0.4,0.5-0.8,0.6c-0.3,0.1-0.7,0.2-1,0.2c-0.6,0-1-0.2-1.4-0.6c-0.4-0.4-0.6-0.8-0.6-1.4
				c0-0.5,0.2-1,0.6-1.4c0.4-0.4,0.9-0.6,1.5-0.6c0.4,0,0.7,0.1,1,0.2c0.3,0.2,0.5,0.4,0.7,0.7l-0.4,0.3c-0.3-0.4-0.8-0.6-1.3-0.6
				c-0.4,0-0.8,0.1-1.1,0.4c-0.3,0.3-0.4,0.6-0.4,1c0,0.4,0.1,0.7,0.4,1c0.3,0.3,0.6,0.4,1.1,0.4c0.5,0,0.9-0.2,1.3-0.6L57.9,103z"
				/>
			<path class="st0" d="M62.4,103.7h-0.5v-0.5c-0.4,0.4-0.9,0.7-1.4,0.7c-0.5,0-1-0.2-1.3-0.6c-0.4-0.4-0.6-0.8-0.6-1.4
				c0-0.5,0.2-1,0.6-1.4c0.4-0.4,0.8-0.6,1.4-0.6s1,0.2,1.4,0.7v-0.6h0.5V103.7z M60.5,103.4c0.4,0,0.7-0.1,1-0.4
				c0.3-0.3,0.4-0.6,0.4-1s-0.1-0.7-0.4-1c-0.3-0.3-0.6-0.4-1-0.4c-0.4,0-0.7,0.1-1,0.4c-0.3,0.3-0.4,0.6-0.4,1c0,0.4,0.1,0.7,0.4,1
				C59.8,103.2,60.1,103.4,60.5,103.4z"/>
			<path class="st0" d="M64.3,102.7l-0.7,1.3l-0.4-0.2l0.6-1.4L64.3,102.7z"/>
			<path class="st0" d="M68.6,100.6h-0.7v2.6c0,0.1,0,0.2,0,0.2c0,0,0.1,0,0.2,0h0.3v0.5c-0.2,0-0.4,0.1-0.5,0.1
				c-0.2,0-0.4-0.1-0.5-0.2c-0.1-0.1-0.2-0.3-0.2-0.5v-2.7h-0.6v-0.5h0.6v-1.4h0.6v1.4h0.7V100.6z"/>
			<path class="st0" d="M72.8,102h-3.2c0,0.4,0.2,0.7,0.4,1c0.3,0.2,0.5,0.4,0.9,0.4c0.6,0,1-0.3,1.3-0.9l0.5,0.2
				c-0.2,0.4-0.5,0.7-0.7,0.9c-0.3,0.2-0.6,0.3-1,0.3c-0.6,0-1-0.2-1.4-0.6c-0.4-0.4-0.5-0.8-0.5-1.4c0-0.5,0.2-1,0.5-1.4
				c0.4-0.4,0.8-0.6,1.3-0.6s1,0.2,1.3,0.5C72.6,100.9,72.8,101.4,72.8,102z M72.2,101.5c-0.1-0.3-0.2-0.6-0.5-0.7
				c-0.2-0.2-0.5-0.3-0.8-0.3c-0.6,0-1,0.3-1.3,1H72.2z"/>
			<path class="st0" d="M79,103.7h-0.6v-2c0-0.3,0-0.6-0.1-0.7c0-0.1-0.1-0.3-0.2-0.4c-0.1-0.1-0.3-0.2-0.5-0.2
				c-0.2,0-0.4,0.1-0.6,0.2c-0.2,0.1-0.3,0.3-0.4,0.6c-0.1,0.2-0.1,0.6-0.1,1v1.5H76v-1.9c0-0.4,0-0.6-0.1-0.8
				c0-0.2-0.1-0.3-0.3-0.4c-0.1-0.1-0.3-0.2-0.5-0.2c-0.2,0-0.4,0.1-0.6,0.2c-0.2,0.1-0.3,0.3-0.4,0.5c-0.1,0.2-0.1,0.5-0.1,1v1.6
				h-0.6v-3.7h0.6v0.5c0.3-0.4,0.7-0.6,1.2-0.6c0.3,0,0.5,0.1,0.7,0.2c0.2,0.1,0.4,0.3,0.4,0.6c0.2-0.3,0.3-0.5,0.6-0.6
				c0.2-0.1,0.5-0.2,0.7-0.2c0.4,0,0.7,0.1,0.9,0.4c0.2,0.2,0.4,0.7,0.4,1.4V103.7z"/>
			<path class="st0" d="M84.7,100.1l-1.7,3.8h-0.1l-1.7-3.8h0.6l1.2,2.7l1.2-2.7H84.7z"/>
			<path class="st0" d="M85.5,98.7c0.1,0,0.2,0,0.3,0.1c0.1,0.1,0.1,0.2,0.1,0.3c0,0.1,0,0.2-0.1,0.3c-0.1,0.1-0.2,0.1-0.3,0.1
				s-0.2,0-0.3-0.1c-0.1-0.1-0.1-0.2-0.1-0.3c0-0.1,0-0.2,0.1-0.3C85.3,98.7,85.4,98.7,85.5,98.7z M85.8,103.7h-0.6v-3.7h0.6V103.7z
				"/>
			<path class="st0" d="M90.3,103.7h-0.5v-0.5c-0.4,0.4-0.9,0.7-1.4,0.7c-0.5,0-1-0.2-1.3-0.6c-0.4-0.4-0.6-0.8-0.6-1.4
				c0-0.5,0.2-1,0.6-1.4c0.4-0.4,0.8-0.6,1.4-0.6s1,0.2,1.4,0.7v-1.9h0.5V103.7z M88.4,103.4c0.4,0,0.7-0.1,1-0.4
				c0.3-0.3,0.4-0.6,0.4-1c0-0.4-0.1-0.7-0.4-1c-0.3-0.3-0.6-0.4-1-0.4s-0.7,0.1-1,0.4c-0.3,0.3-0.4,0.6-0.4,1c0,0.4,0.1,0.7,0.4,1
				C87.7,103.2,88.1,103.4,88.4,103.4z"/>
			<path class="st0" d="M95,103.7h-0.5v-0.5c-0.4,0.4-0.9,0.7-1.4,0.7c-0.5,0-1-0.2-1.3-0.6c-0.4-0.4-0.6-0.8-0.6-1.4
				c0-0.5,0.2-1,0.6-1.4c0.4-0.4,0.8-0.6,1.4-0.6s1,0.2,1.4,0.7v-0.6H95V103.7z M93.1,103.4c0.4,0,0.7-0.1,1-0.4
				c0.3-0.3,0.4-0.6,0.4-1s-0.1-0.7-0.4-1c-0.3-0.3-0.6-0.4-1-0.4c-0.4,0-0.7,0.1-1,0.4c-0.3,0.3-0.4,0.6-0.4,1c0,0.4,0.1,0.7,0.4,1
				C92.4,103.2,92.7,103.4,93.1,103.4z"/>
			<path class="st0" d="M96.5,102.6c0.1,0,0.2,0,0.3,0.1c0.1,0.1,0.1,0.2,0.1,0.3c0,0.1,0,0.2-0.1,0.3c-0.1,0.1-0.2,0.1-0.3,0.1
				c-0.1,0-0.2,0-0.3-0.1c-0.1-0.1-0.1-0.2-0.1-0.3c0-0.1,0-0.2,0.1-0.3C96.2,102.6,96.3,102.6,96.5,102.6z"/>
		</g>
	</g>
</g>
<g>
	<polygon class="st1" points="76.2,45.4 71.7,32 42.2,32 37.6,45.4 49.6,45.4 49.6,78.2 64.3,78.2 64.3,45.4 	"/>
	<polygon class="st2" points="42.2,32 37.7,45.4 49.6,45.4 49.6,78.1 64.3,78.1 64.3,45.4 76.2,45.4 71.6,32 	"/>
	<polygon class="st3" points="42.3,32.1 37.8,45.4 49.7,45.4 49.7,78.1 64.2,78.1 64.2,45.4 76.1,45.4 71.6,32.1 	"/>
	<polygon class="st4" points="42.3,32.1 37.8,45.3 49.7,45.3 49.7,78 64.2,78 64.2,45.3 76,45.3 71.6,32.1 	"/>
	<polygon class="st5" points="42.3,32.1 37.9,45.3 49.8,45.3 49.8,78 64.1,78 64.1,45.3 76,45.3 71.6,32.1 	"/>
	<polygon class="st6" points="42.3,32.2 38,45.2 49.8,45.2 49.8,77.9 64.1,77.9 64.1,45.2 75.9,45.2 71.5,32.2 	"/>
	<polygon class="st7" points="42.4,32.2 38,45.2 49.9,45.2 49.9,77.9 64,77.9 64,45.2 75.8,45.2 71.5,32.2 	"/>
	<polygon class="st8" points="42.4,32.2 38.1,45.2 49.9,45.2 49.9,77.9 64,77.9 64,45.2 75.8,45.2 71.5,32.2 	"/>
	<polygon class="st9" points="42.4,32.3 38.2,45.1 50,45.1 50,77.8 63.9,77.8 63.9,45.1 75.7,45.1 71.5,32.3 	"/>
	<polygon class="st10" points="42.5,32.3 38.2,45.1 50,45.1 50,77.8 63.8,77.8 63.8,45.1 75.6,45.1 71.4,32.3 	"/>
	<polygon class="st11" points="42.5,32.3 38.3,45.1 50.1,45.1 50.1,77.7 63.8,77.7 63.8,45.1 75.6,45.1 71.4,32.3 	"/>
	<polygon class="st12" points="42.5,32.4 38.4,45 50.1,45 50.1,77.7 63.7,77.7 63.7,45 75.5,45 71.4,32.4 	"/>
	<polygon class="st13" points="42.5,32.4 38.5,45 50.2,45 50.2,77.6 63.7,77.6 63.7,45 75.4,45 71.3,32.4 	"/>
	<polygon class="st14" points="42.6,32.5 38.5,45 50.2,45 50.2,77.6 63.6,77.6 63.6,45 75.4,45 71.3,32.5 	"/>
	<polygon class="st15" points="42.6,32.5 38.6,44.9 50.3,44.9 50.3,77.6 63.6,77.6 63.6,44.9 75.3,44.9 71.3,32.5 	"/>
	<polygon class="st16" points="42.6,32.5 38.7,44.9 50.3,44.9 50.3,77.5 63.5,77.5 63.5,44.9 75.2,44.9 71.3,32.5 	"/>
	<polygon class="st17" points="42.6,32.6 38.7,44.9 50.4,44.9 50.4,77.5 63.5,77.5 63.5,44.9 75.2,44.9 71.2,32.6 	"/>
	<polygon class="st18" points="42.7,32.6 38.8,44.8 50.5,44.8 50.5,77.4 63.4,77.4 63.4,44.8 75.1,44.8 71.2,32.6 	"/>
	<polygon class="st19" points="42.7,32.6 38.9,44.8 50.5,44.8 50.5,77.4 63.4,77.4 63.4,44.8 75,44.8 71.2,32.6 	"/>
	<polygon class="st20" points="42.7,32.7 38.9,44.7 50.6,44.7 50.6,77.3 63.3,77.3 63.3,44.7 74.9,44.7 71.1,32.7 	"/>
	<polygon class="st21" points="42.8,32.7 39,44.7 50.6,44.7 50.6,77.3 63.3,77.3 63.3,44.7 74.9,44.7 71.1,32.7 	"/>
	<polygon class="st22" points="42.8,32.7 39.1,44.7 50.7,44.7 50.7,77.2 63.2,77.2 63.2,44.7 74.8,44.7 71.1,32.7 	"/>
	<polygon class="st23" points="42.8,32.8 39.1,44.6 50.7,44.6 50.7,77.2 63.2,77.2 63.2,44.6 74.7,44.6 71.1,32.8 	"/>
	<polygon class="st24" points="42.8,32.8 39.2,44.6 50.8,44.6 50.8,77.2 63.1,77.2 63.1,44.6 74.7,44.6 71,32.8 	"/>
	<polygon class="st25" points="42.9,32.8 39.3,44.6 50.8,44.6 50.8,77.1 63.1,77.1 63.1,44.6 74.6,44.6 71,32.8 	"/>
	<polygon class="st26" points="42.9,32.9 39.3,44.5 50.9,44.5 50.9,77.1 63,77.1 63,44.5 74.5,44.5 71,32.9 	"/>
	<polygon class="st27" points="42.9,32.9 39.4,44.5 50.9,44.5 50.9,77 62.9,77 62.9,44.5 74.5,44.5 71,32.9 	"/>
	<polygon class="st28" points="43,33 39.5,44.5 51,44.5 51,77 62.9,77 62.9,44.5 74.4,44.5 70.9,33 	"/>
	<polygon class="st29" points="43,33 39.5,44.4 51,44.4 51,76.9 62.8,76.9 62.8,44.4 74.3,44.4 70.9,33 	"/>
	<polygon class="st30" points="43,33 39.6,44.4 51.1,44.4 51.1,76.9 62.8,76.9 62.8,44.4 74.3,44.4 70.9,33 	"/>
	<polygon class="st31" points="43,33.1 39.7,44.3 51.1,44.3 51.1,76.9 62.7,76.9 62.7,44.3 74.2,44.3 70.8,33.1 	"/>
	<polygon class="st32" points="43.1,33.1 39.8,44.3 51.2,44.3 51.2,76.8 62.7,76.8 62.7,44.3 74.1,44.3 70.8,33.1 	"/>
</g>
</svg>
