<?xml version="1.0" encoding="utf-8"?>
<!-- Generator: Adobe Illustrator 22.0.0, SVG Export Plug-In . SVG Version: 6.00 Build 0)  -->
<svg version="1.1" id="Layer_1" xmlns="http://www.w3.org/2000/svg" xmlns:xlink="http://www.w3.org/1999/xlink" x="0px" y="0px"
	 viewBox="0 0 190.6 209.1" style="enable-background:new 0 0 190.6 209.1;" xml:space="preserve">
<style type="text/css">
	.st0{fill:#FFFFFF;}
	.st1{fill:none;stroke:#FFFFFF;stroke-miterlimit:10;}
</style>
	<g>
	<g>
		<g>
			<g>
				<g>
					<path class="st0" d="M15,166.6h-4.4v17.7H8.3v-17.7H3.9v-2.3H15V166.6z"/>
					<path class="st0" d="M24.2,169.1c2.1,0,4,0.8,5.5,2.3c1.5,1.5,2.3,3.4,2.3,5.6s-0.7,4-2.2,5.6c-1.5,1.5-3.3,2.3-5.5,2.3
						s-4-0.8-5.5-2.3c-1.5-1.5-2.2-3.4-2.2-5.6s0.8-4,2.3-5.6S22,169.1,24.2,169.1z M24.2,182.6c1.5,0,2.8-0.5,3.9-1.7
						c1.1-1.1,1.6-2.4,1.6-4s-0.5-2.9-1.6-4s-2.4-1.7-3.8-1.7c-1.5,0-2.8,0.6-3.8,1.7c-1.1,1.1-1.6,2.5-1.6,4.1c0,1.6,0.5,2.9,1.6,4
						S22.6,182.6,24.2,182.6z"/>
					<path class="st0" d="M41.8,171.4h-2.9v10.4c0,0.4,0.1,0.6,0.2,0.7c0.1,0.1,0.4,0.1,0.8,0.1h1.3v1.9c-0.9,0.1-1.5,0.2-2,0.2
						c-0.9,0-1.5-0.2-1.9-0.6c-0.4-0.4-0.6-1.1-0.6-2v-10.7h-2.6v-2h2.6v-5.6h2.3v5.6h2.9V171.4z"/>
					<path class="st0" d="M59,184.3h-2.2v-2.2c-1.6,1.8-3.5,2.7-5.6,2.7c-2.1,0-3.9-0.8-5.4-2.3c-1.5-1.6-2.3-3.4-2.3-5.6
						s0.8-4,2.3-5.5c1.5-1.5,3.4-2.3,5.5-2.3c2.2,0,4,0.9,5.5,2.6v-2.3H59V184.3z M51.4,182.7c1.5,0,2.8-0.5,3.9-1.6
						c1.1-1.1,1.6-2.5,1.6-4.1c0-1.6-0.5-3-1.6-4.1c-1.1-1.1-2.4-1.7-3.9-1.7c-1.6,0-2.9,0.6-3.9,1.7c-1.1,1.1-1.6,2.5-1.6,4
						s0.5,2.9,1.6,4C48.6,182.1,49.9,182.7,51.4,182.7z"/>
					<path class="st0" d="M64.8,184.3h-2.2v-20.5h2.2V184.3z"/>
					<path class="st0" d="M90.5,183.4c-1.6,0.9-3.3,1.4-5.2,1.4c-3,0-5.6-1-7.6-3c-2-2-3.1-4.5-3.1-7.4c0-3,1-5.5,3-7.5
						c2-2,4.5-3,7.5-3c1.9,0,3.7,0.5,5.3,1.4c1.6,0.9,2.9,2.2,3.8,3.8c0.9,1.6,1.4,3.4,1.4,5.3c0,3-1.1,5.5-3.3,7.7l3,3.8h-2.9
						L90.5,183.4z M90.9,180.2c1.6-1.6,2.3-3.5,2.3-5.8c0-2.3-0.8-4.3-2.4-5.8c-1.6-1.6-3.5-2.4-5.7-2.4c-2.2,0-4.1,0.8-5.7,2.4
						c-1.6,1.6-2.4,3.6-2.4,5.9c0,2.3,0.8,4.2,2.4,5.8c1.6,1.5,3.5,2.3,5.7,2.3c1.4,0,2.7-0.3,4-1l-4.5-5.6h2.8L90.9,180.2z"/>
					<path class="st0" d="M111.7,184.3h-2.3v-2.2c-1.5,1.7-3.2,2.6-5.2,2.6c-1.1,0-2-0.3-2.9-0.8c-0.9-0.6-1.5-1.3-2-2.3
						s-0.7-2.5-0.7-4.5v-7.6h2.2v7.1c0,1.6,0.1,2.8,0.2,3.3c0.2,0.6,0.4,1.1,0.7,1.5s0.7,0.7,1.1,0.9c0.5,0.2,1,0.3,1.7,0.3
						s1.3-0.2,2-0.5c0.6-0.3,1.2-0.8,1.6-1.4c0.5-0.6,0.8-1.2,0.9-1.9c0.2-0.7,0.3-2,0.3-3.9v-5.5h2.3V184.3z"/>
					<path class="st0" d="M116.9,163.9l3.3,0l-4.2,3.7h-2.5L116.9,163.9z M117.6,184.3h-2.3v-14.9h2.3V184.3z"/>
					<path class="st0" d="M143,184.3h-2.3v-8.1c0-1.3-0.1-2.2-0.2-2.8c-0.2-0.6-0.5-1.1-1-1.5s-1.2-0.6-2-0.6s-1.6,0.3-2.4,0.8
						c-0.7,0.5-1.3,1.3-1.6,2.2c-0.3,0.9-0.4,2.3-0.4,4.2v5.9h-2.2v-7.6c0-1.5-0.1-2.6-0.2-3.2c-0.2-0.7-0.5-1.2-1-1.6
						c-0.5-0.4-1.2-0.6-2-0.6c-0.8,0-1.6,0.3-2.3,0.8c-0.7,0.5-1.3,1.2-1.6,2c-0.3,0.8-0.5,2.2-0.5,4v6.3h-2.2v-14.9h2.2v2.1
						c1.3-1.7,2.9-2.5,4.8-2.5c1,0,2,0.3,2.8,0.8c0.8,0.6,1.5,1.3,1.8,2.4c0.6-1,1.4-1.8,2.3-2.4c0.9-0.5,1.9-0.8,2.9-0.8
						c1.4,0,2.6,0.5,3.6,1.5s1.5,2.9,1.5,5.6V184.3z"/>
					<path class="st0" d="M147.4,163.8c0.5,0,0.9,0.2,1.2,0.5c0.3,0.3,0.5,0.7,0.5,1.2c0,0.5-0.2,0.9-0.5,1.2
						c-0.3,0.3-0.7,0.5-1.2,0.5s-0.9-0.2-1.2-0.5c-0.3-0.3-0.5-0.8-0.5-1.2s0.2-0.9,0.5-1.2S146.9,163.8,147.4,163.8z M148.5,184.3
						h-2.3v-14.9h2.3V184.3z"/>
					<path class="st0" d="M166.5,181.3c-0.8,1.1-1.8,2-3.1,2.6s-2.6,0.9-4.1,0.9c-2.3,0-4.2-0.8-5.7-2.3c-1.5-1.5-2.3-3.4-2.3-5.5
						s0.8-4.1,2.3-5.6s3.5-2.3,6-2.3c1.5,0,2.8,0.3,4,1s2.2,1.5,2.9,2.7l-1.8,1.1c-1.3-1.7-3.1-2.6-5.2-2.6c-1.7,0-3.1,0.5-4.3,1.6
						s-1.7,2.4-1.7,4c0,1.6,0.6,3,1.7,4.1s2.6,1.7,4.3,1.7c2.1,0,3.8-0.9,5.2-2.6L166.5,181.3z"/>
					<path class="st0" d="M184.4,184.3h-2.2v-2.2c-1.6,1.8-3.5,2.7-5.6,2.7s-3.9-0.8-5.4-2.3c-1.5-1.6-2.3-3.4-2.3-5.6
						s0.8-4,2.3-5.5c1.5-1.5,3.4-2.3,5.5-2.3c2.2,0,4,0.9,5.5,2.6v-2.3h2.2V184.3z M176.8,182.7c1.5,0,2.8-0.5,3.9-1.6
						c1.1-1.1,1.6-2.5,1.6-4.1c0-1.6-0.5-3-1.6-4.1c-1.1-1.1-2.4-1.7-3.9-1.7s-2.9,0.6-3.9,1.7s-1.6,2.5-1.6,4s0.5,2.9,1.6,4
						C174,182.1,175.3,182.7,176.8,182.7z"/>
				</g>
			</g>
		</g>
	</g>
		<g>
		<g>
			<path class="st0" d="M10.8,193.6c0.9,0,1.7,0.2,2.5,0.6c0.8,0.4,1.4,1,1.8,1.8s0.7,1.6,0.7,2.4c0,0.9-0.2,1.7-0.6,2.4
				s-1,1.3-1.8,1.8c-0.8,0.4-1.6,0.6-2.4,0.6s-1.7-0.2-2.5-0.6c-0.8-0.4-1.4-1-1.8-1.8c-0.4-0.7-0.6-1.6-0.6-2.4s0.2-1.7,0.6-2.5
				c0.4-0.8,1-1.3,1.8-1.8S9.9,193.6,10.8,193.6z M10.8,202.3c1.1,0,1.9-0.4,2.7-1.1s1.1-1.6,1.1-2.7c0-1.1-0.4-2-1.1-2.7
				c-0.7-0.7-1.6-1.1-2.7-1.1c-1.1,0-2,0.4-2.7,1.1c-0.7,0.7-1.1,1.6-1.1,2.7s0.4,2,1.1,2.7C8.9,201.9,9.8,202.3,10.8,202.3z"/>
			<path class="st0" d="M23.2,203.1h-1v-3.3c0-0.8,0-1.3-0.1-1.5s-0.2-0.5-0.3-0.7c-0.1-0.2-0.3-0.3-0.5-0.4
				c-0.2-0.1-0.5-0.1-0.8-0.1c-0.3,0-0.6,0.1-0.9,0.2c-0.3,0.2-0.5,0.4-0.8,0.6c-0.2,0.3-0.4,0.6-0.4,0.9s-0.1,0.9-0.1,1.8v2.6h-1.1
				v-6.9h1.1v1c0.7-0.8,1.5-1.2,2.4-1.2c0.5,0,0.9,0.1,1.4,0.4c0.4,0.3,0.7,0.6,0.9,1.1c0.2,0.5,0.3,1.1,0.3,2.1V203.1z"/>
			<path class="st0" d="M31.8,203.1h-1v-1c-0.8,0.8-1.6,1.2-2.6,1.2c-1,0-1.8-0.4-2.5-1.1c-0.7-0.7-1-1.6-1-2.6c0-1,0.4-1.9,1.1-2.6
				s1.6-1.1,2.6-1.1s1.9,0.4,2.5,1.2v-3.6h1V203.1z M28.2,202.4c0.7,0,1.3-0.2,1.8-0.7c0.5-0.5,0.8-1.1,0.8-1.9s-0.2-1.4-0.7-1.9
				c-0.5-0.5-1.1-0.8-1.8-0.8c-0.7,0-1.4,0.3-1.8,0.8c-0.5,0.5-0.7,1.1-0.7,1.9s0.3,1.3,0.8,1.9C26.9,202.1,27.5,202.4,28.2,202.4z"
			/>
			<path class="st0" d="M40.4,199.9h-6c0,0.8,0.3,1.4,0.8,1.8c0.5,0.5,1,0.7,1.7,0.7c1.1,0,1.9-0.5,2.5-1.6l0.9,0.5
				c-0.4,0.7-0.9,1.3-1.4,1.6c-0.5,0.4-1.2,0.5-1.9,0.5c-1,0-1.9-0.4-2.6-1.1s-1-1.6-1-2.6c0-1,0.3-1.9,1-2.6s1.5-1.1,2.5-1.1
				c1,0,1.8,0.3,2.5,1C40,197.7,40.3,198.7,40.4,199.9z M39.2,198.9c-0.1-0.6-0.4-1-0.9-1.4s-1-0.5-1.5-0.5c-1.2,0-2,0.6-2.4,1.9
				H39.2z"/>
			<path class="st0" d="M48.1,197.1h-1.4v4.8c0,0.2,0,0.3,0.1,0.3s0.2,0.1,0.4,0.1h0.6v0.9c-0.4,0.1-0.7,0.1-0.9,0.1
				c-0.4,0-0.7-0.1-0.9-0.3c-0.2-0.2-0.3-0.5-0.3-0.9v-5h-1.2v-0.9h1.2v-2.6h1.1v2.6h1.4V197.1z"/>
			<path class="st0" d="M56,199.9h-6c0,0.8,0.3,1.4,0.8,1.8c0.5,0.5,1,0.7,1.7,0.7c1.1,0,1.9-0.5,2.5-1.6l0.9,0.5
				c-0.4,0.7-0.9,1.3-1.4,1.6c-0.5,0.4-1.2,0.5-1.9,0.5c-1,0-1.9-0.4-2.6-1.1s-1-1.6-1-2.6c0-1,0.3-1.9,1-2.6s1.5-1.1,2.5-1.1
				c1,0,1.8,0.3,2.5,1C55.7,197.7,56,198.7,56,199.9z M54.9,198.9c-0.1-0.6-0.4-1-0.9-1.4s-1-0.5-1.5-0.5c-1.2,0-2,0.6-2.4,1.9H54.9
				z"/>
			<path class="st0" d="M67.7,203.1h-1.1v-3.8c0-0.6,0-1-0.1-1.3c-0.1-0.3-0.2-0.5-0.5-0.7s-0.6-0.3-0.9-0.3c-0.4,0-0.8,0.1-1.1,0.4
				s-0.6,0.6-0.7,1s-0.2,1.1-0.2,1.9v2.7h-1v-3.5c0-0.7,0-1.2-0.1-1.5s-0.2-0.6-0.5-0.7c-0.2-0.2-0.6-0.3-0.9-0.3
				c-0.4,0-0.7,0.1-1.1,0.3c-0.3,0.2-0.6,0.5-0.7,0.9c-0.2,0.4-0.2,1-0.2,1.9v2.9h-1v-6.9h1v1c0.6-0.8,1.3-1.2,2.2-1.2
				c0.5,0,0.9,0.1,1.3,0.4c0.4,0.3,0.7,0.6,0.8,1.1c0.3-0.5,0.6-0.8,1.1-1.1c0.4-0.3,0.9-0.4,1.4-0.4c0.7,0,1.2,0.2,1.7,0.7
				c0.5,0.5,0.7,1.3,0.7,2.6V203.1z"/>
			<path class="st0" d="M79.4,205.6h-1v-3.5c-0.7,0.8-1.6,1.2-2.6,1.2c-1,0-1.8-0.4-2.5-1.1c-0.7-0.7-1-1.6-1-2.6
				c0-1,0.4-1.9,1.1-2.6s1.6-1.1,2.6-1.1s1.9,0.4,2.5,1.2v-1.1h1V205.6z M75.8,202.4c0.7,0,1.3-0.3,1.8-0.8c0.5-0.5,0.8-1.1,0.8-1.9
				c0-0.7-0.2-1.4-0.7-1.9c-0.5-0.5-1.1-0.8-1.8-0.8s-1.3,0.3-1.8,0.8c-0.5,0.5-0.8,1.2-0.8,1.9c0,0.7,0.3,1.3,0.8,1.9
				C74.5,202.1,75.1,202.4,75.8,202.4z"/>
			<path class="st0" d="M87.1,203.1H86v-1c-0.7,0.8-1.5,1.2-2.4,1.2c-0.5,0-0.9-0.1-1.4-0.4c-0.4-0.3-0.7-0.6-0.9-1.1
				c-0.2-0.5-0.3-1.1-0.3-2.1v-3.5h1v3.3c0,0.8,0,1.3,0.1,1.5c0.1,0.3,0.2,0.5,0.3,0.7c0.1,0.2,0.3,0.3,0.5,0.4s0.5,0.1,0.8,0.1
				c0.3,0,0.6-0.1,0.9-0.2c0.3-0.2,0.5-0.4,0.8-0.6c0.2-0.3,0.4-0.6,0.4-0.9s0.1-0.9,0.1-1.8v-2.6h1.1V203.1z"/>
			<path class="st0" d="M89.5,193.7l1.5,0l-1.9,1.7h-1.2L89.5,193.7z M89.8,203.1h-1.1v-6.9h1.1V203.1z"/>
			<path class="st0" d="M101.6,203.1h-1.1v-3.8c0-0.6,0-1-0.1-1.3c-0.1-0.3-0.2-0.5-0.5-0.7s-0.6-0.3-0.9-0.3
				c-0.4,0-0.8,0.1-1.1,0.4c-0.3,0.3-0.6,0.6-0.7,1s-0.2,1.1-0.2,1.9v2.7h-1v-3.5c0-0.7,0-1.2-0.1-1.5s-0.2-0.6-0.5-0.7
				c-0.2-0.2-0.6-0.3-0.9-0.3s-0.7,0.1-1.1,0.3c-0.3,0.2-0.6,0.5-0.7,0.9c-0.2,0.4-0.2,1-0.2,1.9v2.9h-1v-6.9h1v1
				c0.6-0.8,1.3-1.2,2.2-1.2c0.5,0,0.9,0.1,1.3,0.4c0.4,0.3,0.7,0.6,0.8,1.1c0.3-0.5,0.6-0.8,1.1-1.1c0.4-0.3,0.9-0.4,1.4-0.4
				c0.7,0,1.2,0.2,1.7,0.7s0.7,1.3,0.7,2.6V203.1z"/>
			<path class="st0" d="M103.6,193.6c0.2,0,0.4,0.1,0.6,0.2s0.2,0.3,0.2,0.6s-0.1,0.4-0.2,0.6s-0.3,0.2-0.6,0.2s-0.4-0.1-0.6-0.2
				s-0.2-0.3-0.2-0.6s0.1-0.4,0.2-0.6C103.2,193.7,103.4,193.6,103.6,193.6z M104.1,203.1h-1.1v-6.9h1.1V203.1z"/>
			<path class="st0" d="M112.5,201.7c-0.4,0.5-0.8,0.9-1.4,1.2s-1.2,0.4-1.9,0.4c-1.1,0-2-0.4-2.7-1.1c-0.7-0.7-1.1-1.6-1.1-2.6
				c0-1,0.4-1.9,1.1-2.6c0.7-0.7,1.6-1.1,2.8-1.1c0.7,0,1.3,0.1,1.9,0.4c0.6,0.3,1,0.7,1.3,1.2l-0.8,0.5c-0.6-0.8-1.4-1.2-2.4-1.2
				c-0.8,0-1.4,0.3-2,0.8c-0.5,0.5-0.8,1.1-0.8,1.9c0,0.7,0.3,1.4,0.8,1.9c0.5,0.5,1.2,0.8,2,0.8c1,0,1.8-0.4,2.4-1.2L112.5,201.7z"
			/>
			<path class="st0" d="M120.8,203.1h-1v-1c-0.8,0.8-1.6,1.2-2.6,1.2s-1.8-0.4-2.5-1.1c-0.7-0.7-1-1.6-1-2.6c0-1,0.3-1.9,1-2.6
				s1.6-1.1,2.6-1.1s1.9,0.4,2.5,1.2v-1.1h1V203.1z M117.3,202.4c0.7,0,1.3-0.3,1.8-0.8c0.5-0.5,0.8-1.1,0.8-1.9s-0.2-1.4-0.7-1.9
				c-0.5-0.5-1.1-0.8-1.8-0.8c-0.7,0-1.3,0.3-1.8,0.8c-0.5,0.5-0.7,1.1-0.7,1.9c0,0.7,0.3,1.3,0.8,1.9
				C115.9,202.1,116.6,202.4,117.3,202.4z"/>
			<path class="st0" d="M124.5,201.1l-1.3,2.5l-0.8-0.3l1.1-2.6L124.5,201.1z"/>
			<path class="st0" d="M132.4,197.1h-1.4v4.8c0,0.2,0,0.3,0.1,0.3c0,0,0.2,0.1,0.4,0.1h0.6v0.9c-0.4,0.1-0.7,0.1-0.9,0.1
				c-0.4,0-0.7-0.1-0.9-0.3c-0.2-0.2-0.3-0.5-0.3-0.9v-5h-1.2v-0.9h1.2v-2.6h1.1v2.6h1.4V197.1z"/>
			<path class="st0" d="M140.3,199.9h-6c0,0.8,0.3,1.4,0.8,1.8c0.5,0.5,1,0.7,1.7,0.7c1.1,0,1.9-0.5,2.5-1.6l0.9,0.5
				c-0.4,0.7-0.9,1.3-1.4,1.6c-0.5,0.4-1.2,0.5-1.9,0.5c-1,0-1.9-0.4-2.6-1.1c-0.7-0.7-1-1.6-1-2.6c0-1,0.3-1.9,1-2.6
				s1.5-1.1,2.5-1.1s1.8,0.3,2.5,1S140.3,198.7,140.3,199.9z M139.2,198.9c-0.1-0.6-0.4-1-0.9-1.4c-0.4-0.3-1-0.5-1.5-0.5
				c-1.2,0-2,0.6-2.4,1.9H139.2z"/>
			<path class="st0" d="M152,203.1h-1.1v-3.8c0-0.6,0-1-0.1-1.3c-0.1-0.3-0.2-0.5-0.5-0.7s-0.6-0.3-0.9-0.3c-0.4,0-0.8,0.1-1.1,0.4
				c-0.3,0.3-0.6,0.6-0.7,1c-0.1,0.4-0.2,1.1-0.2,1.9v2.7h-1v-3.5c0-0.7,0-1.2-0.1-1.5s-0.2-0.6-0.5-0.7c-0.2-0.2-0.6-0.3-0.9-0.3
				s-0.7,0.1-1.1,0.3c-0.3,0.2-0.6,0.5-0.7,0.9c-0.2,0.4-0.2,1-0.2,1.9v2.9h-1v-6.9h1v1c0.6-0.8,1.3-1.2,2.2-1.2
				c0.5,0,0.9,0.1,1.3,0.4c0.4,0.3,0.7,0.6,0.8,1.1c0.3-0.5,0.6-0.8,1.1-1.1c0.4-0.3,0.9-0.4,1.4-0.4c0.7,0,1.2,0.2,1.7,0.7
				s0.7,1.3,0.7,2.6V203.1z"/>
			<path class="st0" d="M162.7,196.2l-3.2,7.1h-0.3l-3.2-7.1h1.1l2.2,5l2.2-5H162.7z"/>
			<path class="st0" d="M164.2,193.6c0.2,0,0.4,0.1,0.6,0.2s0.2,0.3,0.2,0.6s-0.1,0.4-0.2,0.6s-0.3,0.2-0.6,0.2s-0.4-0.1-0.6-0.2
				s-0.2-0.3-0.2-0.6s0.1-0.4,0.2-0.6C163.8,193.7,164,193.6,164.2,193.6z M164.7,203.1h-1.1v-6.9h1.1V203.1z"/>
			<path class="st0" d="M173.2,203.1h-1v-1c-0.8,0.8-1.6,1.2-2.6,1.2s-1.8-0.4-2.5-1.1c-0.7-0.7-1-1.6-1-2.6c0-1,0.3-1.9,1-2.6
				s1.6-1.1,2.6-1.1s1.9,0.4,2.5,1.2v-3.6h1V203.1z M169.7,202.4c0.7,0,1.3-0.2,1.8-0.7c0.5-0.5,0.8-1.1,0.8-1.9s-0.2-1.4-0.7-1.9
				c-0.5-0.5-1.1-0.8-1.8-0.8s-1.4,0.3-1.8,0.8c-0.5,0.5-0.7,1.1-0.7,1.9s0.3,1.3,0.8,1.9S169,202.4,169.7,202.4z"/>
			<path class="st0" d="M181.9,203.1h-1v-1c-0.8,0.8-1.6,1.2-2.6,1.2s-1.8-0.4-2.5-1.1c-0.7-0.7-1-1.6-1-2.6c0-1,0.3-1.9,1-2.6
				s1.6-1.1,2.6-1.1s1.9,0.4,2.5,1.2v-1.1h1V203.1z M178.3,202.4c0.7,0,1.3-0.3,1.8-0.8c0.5-0.5,0.8-1.1,0.8-1.9s-0.2-1.4-0.7-1.9
				c-0.5-0.5-1.1-0.8-1.8-0.8c-0.7,0-1.3,0.3-1.8,0.8c-0.5,0.5-0.7,1.1-0.7,1.9c0,0.7,0.3,1.3,0.8,1.9
				C177,202.1,177.6,202.4,178.3,202.4z"/>
			<path class="st0" d="M184.7,201c0.2,0,0.4,0.1,0.6,0.2c0.2,0.2,0.2,0.4,0.2,0.6c0,0.2-0.1,0.4-0.2,0.6c-0.2,0.2-0.4,0.2-0.6,0.2
				c-0.2,0-0.4-0.1-0.6-0.3c-0.2-0.2-0.3-0.4-0.3-0.6s0.1-0.4,0.3-0.6C184.2,201,184.4,201,184.7,201z"/>
		</g>
	</g>
</g>
	<g>
	<g>
		<path class="st0" d="M74.4,93.8L83,68.6h44c-12.2-25.1-29.9-56-32.2-60c-3.5,6-41.7,72.6-43.7,89.2c-2.4,19.4,4.2,29.8,10.7,37
			c8.3,9.3,21,14.3,33,14.5c0.6,0,1.3,0,2-0.1V93.8H74.4z M137.6,93.8h-13.2v44.5c1.2-1,2.3-2.2,3.4-3.4c6.5-7.2,13-17.6,10.7-37
			C138.4,96.7,138.1,95.4,137.6,93.8z M96.8,155.2h27.7v-16.9c-7.6,6.7-17.8,10.5-27.7,11V155.2z M146.8,93.8l-8.6-25.2H127
			c4.9,10,8.8,19.1,10.6,25.2H146.8z"/>
	</g>
		<g>
		<path class="st1" d="M74.4,93.8L83,68.6h44c-12.2-25.1-29.9-56-32.2-60c-3.5,6-41.7,72.6-43.7,89.2c-2.4,19.4,4.2,29.8,10.7,37
			c8.3,9.3,21,14.3,33,14.5c0.6,0,1.3,0,2-0.1V93.8H74.4z M137.6,93.8h-13.2v44.5c1.2-1,2.3-2.2,3.4-3.4c6.5-7.2,13-17.6,10.7-37
			C138.4,96.7,138.1,95.4,137.6,93.8z M96.8,155.2h27.7v-16.9c-7.6,6.7-17.8,10.5-27.7,11V155.2z M146.8,93.8l-8.6-25.2H127
			c4.9,10,8.8,19.1,10.6,25.2H146.8z"/>
	</g>
</g>
</svg>
